<?xml version="1.0" encoding="UTF-8" standalone="no"?>
<!-- Created with Inkscape (http://www.inkscape.org/) -->

<svg
   xmlns:dc="http://purl.org/dc/elements/1.1/"
   xmlns:cc="http://creativecommons.org/ns#"
   xmlns:rdf="http://www.w3.org/1999/02/22-rdf-syntax-ns#"
   xmlns:svg="http://www.w3.org/2000/svg"
   xmlns="http://www.w3.org/2000/svg"
   xmlns:sodipodi="http://sodipodi.sourceforge.net/DTD/sodipodi-0.dtd"
   xmlns:inkscape="http://www.inkscape.org/namespaces/inkscape"
   width="436.9151mm"
   height="440.52808mm"
   viewBox="0 0 1548.1243 1560.9262"
   id="svg2"
   version="1.1"
   inkscape:version="0.91 r13725"
   sodipodi:docname="agamidi_oda.svg">
  <sodipodi:namedview
     id="base"
     pagecolor="#000000"
     bordercolor="#666666"
     borderopacity="1.0"
     inkscape:pageopacity="0"
     inkscape:pageshadow="2"
     inkscape:zoom="0.50686821"
     inkscape:cx="309.44468"
     inkscape:cy="306.96753"
     inkscape:document-units="px"
     inkscape:current-layer="layer1"
     showgrid="false"
     fit-margin-top="2"
     fit-margin-left="2"
     fit-margin-right="2"
     fit-margin-bottom="2"
     inkscape:window-width="1920"
     inkscape:window-height="966"
     inkscape:window-x="0"
     inkscape:window-y="1"
     inkscape:window-maximized="1" />
  <defs
     id="defs4" />
  <metadata
     id="metadata7">
    <rdf:RDF>
      <cc:Work
         rdf:about="">
        <dc:format>image/svg+xml</dc:format>
        <dc:type
           rdf:resource="http://purl.org/dc/dcmitype/StillImage" />
        <dc:title />
      </cc:Work>
    </rdf:RDF>
  </metadata>
  <g
     inkscape:label="Layer 1"
     inkscape:groupmode="layer"
     id="layer1"
     transform="translate(2000.9324,407.96808)">
    <g
       id="g5181">
      <path
         inkscape:label="#auro"
         inkscape:connector-curvature="0"
         style="fill:none;fill-rule:evenodd;stroke:#32aa32;stroke-width:7.08699916;stroke-linecap:butt;stroke-linejoin:miter;stroke-miterlimit:4;stroke-dasharray:none;stroke-opacity:1;opacity:0"
         d="m -490.35249,402.7853 c 109.63829,41.43164 -144.1389,576.85494 -253.40663,534.45487 0,0 144.9782,-447.65826 24.81958,-459.44475 -81.54447,-7.99881 -132.05834,215.34887 -197.3425,165.83632 -40.18116,-30.47399 29.71161,-106.73678 -11.3571,-136.00359 -40.16536,-28.62298 -95.98516,19.33243 -130.86556,-15.53726 -29.9092,-29.90006 -15.4057,-42.46221 -47.9065,-69.52271 -23.8956,-19.89581 -82.2948,-33.93654 -82.2948,-33.93654 0,0 74.2419,1.98122 120.9235,20.18443 28.4485,11.0933 19.0587,37.61547 46.1869,51.63119 50.87896,26.28654 90.05531,-55.02888 144.04267,-35.92367 40.88671,14.46909 -13.21035,92.90656 24.62007,114.11838 66.25735,37.15098 97.50052,-162.55786 173.37583,-166.18377 54.23073,-2.59154 36.35128,162.38184 89.39202,173.97379 40.27662,8.80229 61.2471,-158.22034 99.81252,-143.64669 0,0 0,0 0,0 m -299.55758,560.61786 c 35.39928,111.73224 -534.52713,249.09144 -570.69593,137.60604 0,0 441.52689,-171.52944 373.14816,-271.03526 -46.40456,-67.52867 -251.40856,33.82163 -254.66236,-48.04962 -2.0027,-50.39018 102.0073,-44.27951 99.1336,-94.62751 -2.8105,-49.2405 -73.6781,-62.43323 -67.9148,-111.41595 4.9419,-42.00172 21.3792,-39.00305 22.1109,-81.28822 0.538,-31.08947 -24.5097,-85.38737 -24.5097,-85.38737 0,0 37.2384,61.87566 53.4409,109.28888 9.874,28.89433 -11.2979,36.03719 -5.2382,65.96471 11.365,56.12917 99.5248,35.01212 118.2349,89.1378 14.1699,40.99145 -80.737,48.55034 -73.5862,91.3282 12.5241,74.92241 187.86117,-26.8554 238.99265,29.32124 36.54544,40.15143 -104.80257,131.52312 -80.6269,180.13624 18.35792,36.91446 159.72124,-50.28118 172.17298,-10.97918 0,0 0,0 0,0 m -620.61443,118.14464 c -64.4086,97.9219 -528.9423,-256.20681 -465.7365,-354.90941 0,0 410.3175,233.04443 444.6472,117.29244 23.2976,-78.55395 -184.4183,-173.58042 -123.1656,-228.00109 37.6997,-33.4949 98.7685,51.30501 136.0444,17.33907 36.456,-33.21885 1.5737,-96.96979 43.1402,-123.51709 35.6424,-22.7638 44.4548,-7.33481 77.7611,-33.39754 24.4879,-19.16217 50.5569,-73.04562 50.5569,-73.04562 0,0 -23.9918,68.2565 -50.658,110.67643 -16.2507,25.85136 -35.4167,13.77698 -54.8394,37.33835 -36.4272,44.18942 35.6054,99.43318 5.3199,148.03817 -22.9363,36.81044 -88.6178,-32.16932 -117.3322,0.33557 -50.2911,56.93006 139.2464,129.074 127.9598,204.19285 -8.067,53.69005 -168.5121,1.24776 -191.0938,50.62152 -17.1473,37.4921 140.0519,92.59215 117.396,127.03635 0,0 0,0 0,0 m -482.175,-405.85557 c -116.5485,12.39444 -135.7024,-571.37117 -19.3149,-585.196438 0,0 77.0226,460.094858 189.3655,415.866668 76.2404,-30.01501 19.2366,-252.22799 99.8256,-237.43232 49.601,9.10641 22.4032,108.4238 72.3029,115.71774 48.8021,7.13345 76.4282,-60.26047 123.3132,-44.95279 40.203,13.12603 33.2926,29.6633 74.5666,38.88469 30.3459,6.77989 88.7165,-7.05938 88.7165,-7.05938 0,0 -66.9534,32.02725 -116.7982,37.1294 -30.3761,3.10934 -34.1301,-24.89464 -64.6649,-24.97299 -57.268,-0.14696 -54.9503,90.57071 -111.7307,98.03032 -43.0019,5.64947 -30.6842,-88.96821 -74.0264,-90.56028 -75.9108,-2.78835 -12.4128,189.79875 -77.6258,228.75397 -46.6099,27.84262 -107.2583,-129.66451 -159.745,-115.77785 -39.856,10.54493 16.8117,167.20951 -24.1844,171.56926 0,0 0,0 0,0 m 9.7856,-630.146601 c -83.5706,-82.177452 366.0465,-470.184579 448.6127,-386.998039 0,0 -314.8718,352.317085 -209.403,411.082548 71.5753,39.880622 207.9551,-144.165508 247.6811,-72.5041975 24.4506,44.1061335 -70.0355,85.5373185 -44.0583,128.7619695 25.4057,42.27381 95.4497,21.16321 113.3683,67.11375 15.365,39.40168 -6.8112,48.94243 11.2704,87.17369 13.2941,28.10892 67.1814,59.12302 67.1814,59.12302 0,0 -67.3402,-31.96957 -102.9025,-67.26618 -21.6723,-21.51029 -2.2922,-41.79328 -21.5804,-65.46481 -36.1752,-44.39603 -107.1844,17.02423 -148.0193,-23.1275 -30.9259,-30.40843 49.5285,-80.26837 24.1581,-115.445406 -44.4345,-61.6100828 -155.0504,109.832156 -226.5496,84.178826 -51.103,-18.33535 35.5834,-168.175976 -7.6492,-201.018616 -32.8288,-24.939071 -122.7136,123.296993 -152.1097,94.390945 0,0 0,0 0,0 m 501.8752,-392.316749 c 13.3077,-116.44778 590.20355,-10.80101 577.63778,105.72923 0,0 -473.00378,-22.35415 -451.56658,96.46284 14.5482,80.634005 243.5128,70.581522 212.7954,146.5416398 -18.906,46.7520022 -110.4482,-0.4617969 -127.5755,46.9706022 -16.7505,46.389058 43.3858,87.333148 18.948,130.173818 -20.9549,36.73504 -41.5888,25.73698 -59.8112,63.90129 -13.3977,28.05967 -3.733,89.38643 -3.733,89.38643 0,0 -16.475,-72.43065 -11.7155,-122.30926 2.9005,-30.39679 30.1582,-28.08762 36.3299,-57.99224 11.5749,-56.086224 -80.4082,-72.519212 -75.2713,-129.556602 3.8903,-43.196611 93.2068,-12.105246 104.4754,-53.987173 19.7362,-73.353255 -182.2982,-51.271406 -206.1129,-123.403855 -17.0212,-51.55559 150.2008,-77.77231 148.2221,-132.02885 -1.5027,-41.19982 -167.3036,-18.92719 -162.6226,-59.88787 0,0 0,0 0,0 m 614.94887,143.47047 c 98.71008,-63.19443 379.42897,446.46048 281.86301,511.40667 0,0 -281.2074,-378.182891 -359.4107,-286.197413 -53.07192,62.425043 99.08789,234.338093 20.60297,257.866793 -48.30595,14.48149 -69.46167,-86.28134 -117.21276,-70.06345 -46.70071,15.8612 -40.37985,88.68955 -89.07979,96.49003 -41.7592,6.68878 -43.6159,-11.81092 -84.5758,-1.28161 -30.115,7.74148 -75.4386,47.10427 -75.4386,47.10427 0,0 48.7148,-54.14596 90.2271,-82.2042 25.2983,-17.09914 38.3859,2.33427 65.6177,-11.47906 51.0734,-25.90694 6.9672,-106.12881 54.35487,-138.28584 35.88845,-24.353785 68.36869,65.46334 107.69585,47.17512 68.87874,-32.03057 -75.2329,-174.2093477 -34.25793,-238.172575 29.28627,-45.716735 154.10806,66.4416717 194.66975,30.352133 30.80055,-27.404726 -89.77709,-140.482138 -55.05567,-162.710868 0,0 0,0 0,0"
         id="aura" />
      <circle
         style="opacity:1;fill:none;fill-opacity:1;fill-rule:evenodd;stroke:#00d11a;stroke-width:7.08661413;stroke-linecap:butt;stroke-linejoin:round;stroke-miterlimit:4;stroke-dasharray:none;stroke-dashoffset:0;stroke-opacity:1"
         id="circle4163"
         cx="-1224.2858"
         cy="370.93362"
         r="240.39778" />
      <circle
         r="310"
         cy="370.93362"
         cx="-1224.2858"
         id="path4161"
         style="opacity:1;fill:none;fill-opacity:1;fill-rule:evenodd;stroke:#00d11a;stroke-width:7.08661413;stroke-linecap:butt;stroke-linejoin:round;stroke-miterlimit:4;stroke-dasharray:none;stroke-dashoffset:0;stroke-opacity:1" />
      <rect
         y="108.07649"
         x="-1280"
         height="48.57143"
         width="111.42857"
         id="rect4138"
         style="opacity:1;fill:#00d11a;fill-opacity:1;fill-rule:evenodd;stroke:none;stroke-width:3.54330707;stroke-linecap:butt;stroke-linejoin:round;stroke-miterlimit:4;stroke-dasharray:none;stroke-dashoffset:0;stroke-opacity:1" />
      <path
         inkscape:connector-curvature="0"
         id="rect4140"
         d="m -1204.9997,608.36216 a 28.928573,28.928573 0 0 0 -12.8584,-24.0366 l 0,-35.9634 -32.1416,0 0,35.97368 a 28.928573,28.928573 0 0 0 -12.8584,24.02632 28.928573,28.928573 0 0 0 12.8584,24.0381 l 0,35.9619 32.1416,0 0,-35.97217 a 28.928573,28.928573 0 0 0 12.8584,-24.02783 z"
         style="opacity:1;fill:#00d11a;fill-opacity:1;fill-rule:evenodd;stroke:none;stroke-width:3.54330707;stroke-linecap:butt;stroke-linejoin:round;stroke-miterlimit:4;stroke-dasharray:none;stroke-dashoffset:0;stroke-opacity:1" />
      <path
         style="opacity:1;fill:#00d11a;fill-opacity:1;fill-rule:evenodd;stroke:none;stroke-width:3.54330707;stroke-linecap:butt;stroke-linejoin:round;stroke-miterlimit:4;stroke-dasharray:none;stroke-dashoffset:0;stroke-opacity:1"
         d="m -1051.7511,537.4156 a 28.928573,28.928573 0 0 0 27.2454,0.88256 l 31.1453,17.9817 16.0707,-27.8354 -31.1541,-17.98683 a 28.928573,28.928573 0 0 0 -14.3782,-23.14891 28.928573,28.928573 0 0 0 -27.2468,-0.88331 l -31.1439,-17.98095 -16.0708,27.8354 31.1528,17.98609 a 28.928573,28.928573 0 0 0 14.3795,23.14965 z"
         id="path4153"
         inkscape:connector-curvature="0" />
      <path
         style="opacity:1;fill:#00d11a;fill-opacity:1;fill-rule:evenodd;stroke:none;stroke-width:3.54330707;stroke-linecap:butt;stroke-linejoin:round;stroke-miterlimit:4;stroke-dasharray:none;stroke-dashoffset:0;stroke-opacity:1"
         d="m -1149.34,601.82678 a 28.928573,28.928573 0 0 0 23.154,14.38706 l 17.9818,31.14523 27.8353,-16.07077 -17.9868,-31.15412 a 28.928573,28.928573 0 0 0 -0.8774,-27.23664 28.928573,28.928573 0 0 0 -23.1549,-14.38838 l -17.9809,-31.14392 -27.8354,16.07079 17.9861,31.15281 a 28.928573,28.928573 0 0 0 0.8782,27.23794 z"
         id="path4157"
         inkscape:connector-curvature="0" />
      <path
         inkscape:connector-curvature="0"
         id="path4174"
         d="m -1402.3966,537.4156 a 28.928573,28.928573 0 0 1 -27.2455,0.88256 l -31.1452,17.9817 -16.0708,-27.8354 31.1541,-17.98683 a 28.928573,28.928573 0 0 1 14.3782,-23.14891 28.928573,28.928573 0 0 1 27.2469,-0.88331 l 31.1439,-17.98095 16.0708,27.8354 -31.1529,17.98609 a 28.928573,28.928573 0 0 1 -14.3794,23.14965 z"
         style="opacity:1;fill:#00d11a;fill-opacity:1;fill-rule:evenodd;stroke:none;stroke-width:3.54330707;stroke-linecap:butt;stroke-linejoin:round;stroke-miterlimit:4;stroke-dasharray:none;stroke-dashoffset:0;stroke-opacity:1" />
      <path
         inkscape:connector-curvature="0"
         id="path4176"
         d="m -1312.8077,599.82678 a 28.928573,28.928573 0 0 1 -23.154,14.38706 l -17.9818,31.14523 -27.8354,-16.07077 17.9869,-31.15412 a 28.928573,28.928573 0 0 1 0.8774,-27.23664 28.928573,28.928573 0 0 1 23.1548,-14.38838 l 17.981,-31.14392 27.8353,16.07079 -17.986,31.15281 a 28.928573,28.928573 0 0 1 -0.8782,27.23794 z"
         style="opacity:1;fill:#00d11a;fill-opacity:1;fill-rule:evenodd;stroke:none;stroke-width:3.54330707;stroke-linecap:butt;stroke-linejoin:round;stroke-miterlimit:4;stroke-dasharray:none;stroke-dashoffset:0;stroke-opacity:1" />
      <path
         inkscape:connector-curvature="0"
         id="ellipse4183"
         d="m -1224.2849,276.64847 a 238.57143,234.28572 0 0 0 -190.9589,94.32031 238.57143,234.28572 0 0 0 190.9589,94.25 238.57143,234.28572 0 0 0 190.9571,-94.32031 238.57143,234.28572 0 0 0 -190.9571,-94.25 z"
         style="opacity:1;fill:#ffffff;fill-opacity:1;fill-rule:evenodd;stroke:#000000;stroke-width:10.62992096;stroke-linecap:butt;stroke-linejoin:round;stroke-miterlimit:4;stroke-dasharray:none;stroke-dashoffset:0;stroke-opacity:1" />
      <path
         inkscape:connector-curvature="0"
         id="path4193"
         d="m -1224.2852,276.64844 a 238.57143,234.28572 0 0 0 -79.3046,13.74414 91.428574,91.428574 0 0 0 -13.5528,47.68359 91.428574,91.428574 0 0 0 91.4278,91.42969 91.428574,91.428574 0 0 0 91.4296,-91.42969 91.428574,91.428574 0 0 0 -14.3632,-49.16992 238.57143,234.28572 0 0 0 -75.6368,-12.25781 z"
         style="opacity:1;fill:#00d11a;fill-opacity:1;fill-rule:evenodd;stroke:#000000;stroke-width:7.08661413;stroke-linecap:butt;stroke-linejoin:round;stroke-miterlimit:4;stroke-dasharray:none;stroke-dashoffset:0;stroke-opacity:1" />
      <circle
         r="55.714287"
         cy="336.64792"
         cx="-1224.2858"
         id="path4199"
         style="opacity:1;fill:#000000;fill-opacity:1;fill-rule:evenodd;stroke:#000000;stroke-width:7.08661413;stroke-linecap:butt;stroke-linejoin:round;stroke-miterlimit:4;stroke-dasharray:none;stroke-dashoffset:0;stroke-opacity:1" />
      <circle
         r="22.857143"
         cy="306.64792"
         cx="-1194.2858"
         id="path4201"
         style="opacity:1;fill:#ffffff;fill-opacity:1;fill-rule:evenodd;stroke:#000000;stroke-width:7.08661413;stroke-linecap:butt;stroke-linejoin:round;stroke-miterlimit:4;stroke-dasharray:none;stroke-dashoffset:0;stroke-opacity:1" />
      <path
         inkscape:connector-curvature="0"
         style="opacity:1;fill:none;fill-opacity:1;fill-rule:evenodd;stroke:#32aa32;stroke-width:5.03664732;stroke-linecap:butt;stroke-linejoin:round;stroke-miterlimit:4;stroke-dasharray:none;stroke-dashoffset:0;stroke-opacity:1"
         d="m -794.9561,370.93362 a 429.32967,429.32967 0 0 1 -429.3296,429.32967 429.32967,429.32967 0 0 1 -429.3297,-429.32967 429.32967,429.32967 0 0 1 429.3297,-429.329661 429.32967,429.32967 0 0 1 429.3296,429.329661 z"
         id="path4264" />
    </g>
  </g>
</svg>
